<svg width="37" height="60" viewBox="0 0 37 60" fill="none" xmlns="http://www.w3.org/2000/svg">
<g clip-path="url(#clip0)">
<path d="M27.7509 54.375H22.612V40.6418C31.4085 38.7797 37.7781 31.2773 36.9238 22.5762L34.8747 1.70508C34.7796 0.739453 33.9047 0 32.8564 0H4.14539C3.09834 0 2.22216 0.739453 2.12838 1.70508L0.0779604 22.5773C-0.77638 31.2785 5.59327 38.7809 14.3898 40.643V54.375H9.25088C6.41293 54.375 4.11199 56.4738 4.11199 59.0625C4.11199 59.5805 4.57192 60 5.13977 60H31.862C32.4298 60 32.8898 59.5805 32.8898 59.0625C32.8898 56.4738 30.5888 54.375 27.7509 54.375ZM7.93404 5.625H29.0677L29.9889 15H7.01289L7.93404 5.625Z" fill="white"/>
</g>
<defs>
<clipPath id="clip0">
<rect width="37" height="60" fill="white"/>
</clipPath>
</defs>
</svg>
